HIERARCHY
ROOT root
{
	OFFSET	0	13.1	24.9
	CHANNELS 6  Xposition Yposition Zposition Xrotation Yrotation Zrotation
	JOINT spine_1
	{
		OFFSET	0	9.99999	0
		CHANNELS 3  Xrotation Yrotation Zrotation
		JOINT spine_2
		{
			OFFSET	0	112	-10
			CHANNELS 3  Xrotation Yrotation Zrotation
			JOINT spine_3
			{
				OFFSET	0	206.5	19.3
				CHANNELS 3  Xrotation Yrotation Zrotation
				JOINT spine_4
				{
					OFFSET	0	110.4	14.6
					CHANNELS 3  Xrotation Yrotation Zrotation
					JOINT neck_1
					{
						OFFSET	0	71.8	-50.3
						CHANNELS 3  Xrotation Yrotation Zrotation
						JOINT neck_2
						{
							OFFSET	0	86.2	-25.8
							CHANNELS 3  Xrotation Yrotation Zrotation
							JOINT head_ee
							{
								OFFSET	0	179.8	-8.7
								CHANNELS 3  Xrotation Yrotation Zrotation
								End Site
								{
									OFFSET	1	0	0
								}
							}
						}
					}
					JOINT left_clavicle
					{
						OFFSET	-43.2	22.4	-70.8
						CHANNELS 3  Xrotation Yrotation Zrotation
						JOINT left_shoulder
						{
							OFFSET	-93.9	-5.79999	48.7
							CHANNELS 3  Xrotation Yrotation Zrotation
							JOINT left_elbow
							{
								OFFSET	-291.4	-30.8	15.2
								CHANNELS 3  Xrotation Yrotation Zrotation
								JOINT left_lowarm_twist
								{
									OFFSET	-110.7	-3.89999	13.6
									CHANNELS 3  Xrotation Yrotation Zrotation
									JOINT left_hand
									{
										OFFSET	-110.7	-3.89999	13.6
										CHANNELS 3  Xrotation Yrotation Zrotation
										JOINT left_ee
										{
											OFFSET	-80.8	-5.10001	12.1
											CHANNELS 3  Xrotation Yrotation Zrotation
											End Site
											{
												OFFSET	1	0	0
											}
										}
									}
								}
							}
						}
					}
					JOINT right_clavicle
					{
						OFFSET	43.2	22.4	-70.8
						CHANNELS 3  Xrotation Yrotation Zrotation
						JOINT right_shoulder
						{
							OFFSET	93.9	-5.79999	48.7
							CHANNELS 3  Xrotation Yrotation Zrotation
							JOINT right_elbow
							{
								OFFSET	291.4	-30.8	15.2
								CHANNELS 3  Xrotation Yrotation Zrotation
								JOINT right_lowarm_twist
								{
									OFFSET	110.7	-3.89999	13.6
									CHANNELS 3  Xrotation Yrotation Zrotation
									JOINT right_hand
									{
										OFFSET	110.7	-3.89999	13.6
										CHANNELS 3  Xrotation Yrotation Zrotation
										JOINT right_ee
										{
											OFFSET	80.8	-5.10001	12.1
											CHANNELS 3  Xrotation Yrotation Zrotation
											End Site
											{
												OFFSET	1	0	0
											}
										}
									}
								}
							}
						}
					}
				}
			}
		}
	}
	JOINT left_hip
	{
		OFFSET	-82.8	-127.5	0.300001
		CHANNELS 3  Xrotation Yrotation Zrotation
		JOINT left_knee
		{
			OFFSET	-28.2	-396.7	2.2
			CHANNELS 3  Xrotation Yrotation Zrotation
			JOINT left_ankle
			{
				OFFSET	-11.7	-411.3	35.4
				CHANNELS 3  Xrotation Yrotation Zrotation
				JOINT left_toes
				{
					OFFSET	0	-60	-88.6
					CHANNELS 3  Xrotation Yrotation Zrotation
					JOINT left_foot_ee
					{
						OFFSET	-22.5	-16.5	-42.2
						CHANNELS 3  Xrotation Yrotation Zrotation
						End Site
						{
							OFFSET	1	0	0
						}
					}
				}
			}
		}
	}
	JOINT right_hip
	{
		OFFSET	82.8	-127.5	0.300001
		CHANNELS 3  Xrotation Yrotation Zrotation
		JOINT right_knee
		{
			OFFSET	28.2	-396.7	2.2
			CHANNELS 3  Xrotation Yrotation Zrotation
			JOINT right_ankle
			{
				OFFSET	11.7	-411.3	35.4
				CHANNELS 3  Xrotation Yrotation Zrotation
				JOINT right_toes
				{
					OFFSET	0	-60	-88.6
					CHANNELS 3  Xrotation Yrotation Zrotation
					JOINT right_foot_ee
					{
						OFFSET	22.5	-16.5	-42.2
						CHANNELS 3  Xrotation Yrotation Zrotation
						End Site
						{
							OFFSET	1	0	0
						}
					}
				}
			}
		}
	}
}
MOTION
Frames: 8
Frame Time: 0.02
2846.59585709 694.847 -1629.6200992 4.20897812842 77.0756925116 0.578261178683 1.45471 -0.297546 -1.28635 1.45561 -0.215096 -1.30268 1.46066 0.0298489 -1.31997 1.45827 -0.178973 -1.30813 -10.2322 -0.807035 11.6741 -9.86098 -9.3956 11.2125 -0.0 0.0 -0.0 3.29746 6.45712 6.71433 5.79661 -17.9853 65.3049 0.872593 -23.3765 0.180522 -11.7015 -0.556032 1.38634 1.48565 21.905 17.7437 -0.0 0.0 -0.0 4.19612 20.7145 -6.63489 -17.3935 24.444 -71.1618 0.220606 6.23677 -0.0120185 31.8192 -0.00655303 4.0129 2.62017 9.2303 -13.8998 0.0 0.0 0.0 4.60993 34.4916 -2.83402 5.34441 -0.25668 -0.779463 19.5738 1.08509 -2.69278 -13.0633 0.0 0.0 -0.0 0.0 -0.0 29.2135 14.5205 -11.6843 -82.444 5.04254 -10.4704 41.406 -0.71421 4.98978 10.0205 -0.0 -0.0 0.0 0.0 0.0 
2848.08803122 694.847 -1618.7175256 4.91958054568 78.9643411476 -0.148063542395 1.45471 -0.297546 -1.28635 1.45561 -0.215096 -1.30268 1.46066 0.0298489 -1.31997 1.45827 -0.178973 -1.30813 -10.2322 -0.807035 11.6741 -9.86098 -9.3956 11.2125 -0.0 0.0 -0.0 3.29746 6.45712 6.71433 5.79661 -17.9853 65.3049 0.872593 -23.3765 0.180522 -11.7015 -0.556032 1.38634 1.48565 21.905 17.7437 -0.0 0.0 -0.0 4.19612 20.7145 -6.63489 -17.3935 24.444 -71.1618 0.220606 6.23677 -0.0120185 31.8192 -0.00655303 4.0129 2.62017 9.2303 -13.8998 0.0 0.0 0.0 4.60993 34.4916 -2.83402 5.34441 -0.25668 -0.779463 19.5738 1.08509 -2.69278 -13.0633 0.0 0.0 -0.0 0.0 -0.0 29.2135 14.5205 -11.6843 -82.444 5.04254 -10.4704 41.406 -0.71421 4.98978 10.0205 -0.0 -0.0 0.0 0.0 0.0 
2842.30332733 686.384 -1602.02745573 -1.03650448815 78.8431077136 6.27474451601 1.61698 -0.214187 -1.81283 1.6188 -0.0984173 -1.82278 1.62205 0.235804 -1.81015 1.61748 -0.0529849 -1.82467 -10.7306 -0.937761 12.1524 -10.3357 -9.8726 11.6002 -0.0 0.0 -0.0 2.85066 4.49667 5.78827 6.94831 -18.9307 64.802 0.958177 -25.3911 0.215861 -9.76873 -0.444791 1.16552 1.37635 19.093 16.1941 -0.0 0.0 -0.0 4.22228 21.825 -6.58692 -19.0626 24.7578 -70.4306 0.185727 5.25677 -0.00852606 31.8296 -0.00619061 4.01418 2.22587 9.1823 -11.196 0.0 0.0 0.0 4.3388 33.385 -2.73034 6.30437 -0.310453 -0.916827 21.6361 -1.56126 -2.96416 -12.6074 0.0 0.0 -0.0 0.0 -0.0 30.2169 13.1914 -12.1718 -74.2005 3.9118 -9.88668 35.1935 -0.922102 4.43151 7.88636 -0.0 -0.0 0.0 0.0 0.0 
2836.81510139 689.856 -1585.1161956 -2.18052618008 79.4113455159 7.25484680191 1.7109 -0.172594 -2.11017 1.71338 -0.0379989 -2.11687 1.71483 0.345557 -2.08884 1.70874 0.0114044 -2.11719 -11.0378 -0.978411 12.4629 -10.6268 -10.0981 11.863 -0.0 0.0 -0.0 2.59164 3.1402 5.21776 7.63916 -19.5636 64.6467 1.02145 -26.8386 0.243713 -8.42623 -0.371949 1.01002 1.32948 16.5633 15.0706 -0.0 0.0 -0.0 4.40359 22.3454 -6.92975 -19.9703 24.9691 -70.3785 0.190587 5.3935 -0.00897698 31.8563 -0.00525871 4.01746 1.90575 8.9956 -9.08304 0.0 0.0 0.0 2.66112 31.6003 -2.27219 6.45812 -0.319279 -0.938745 23.0373 -3.92508 -3.15536 -12.2883 0.0 0.0 -0.0 0.0 -0.0 31.999 12.1786 -12.7671 -66.7572 2.97209 -9.22566 30.9207 -1.54284 3.99791 6.18577 -0.0 -0.0 0.0 0.0 0.0 
2778.61370189 690.954 -1560.67392347 -6.47351439046 79.1526577067 11.212521081 2.36066 -0.2886 -2.34858 2.36372 -0.138612 -2.36217 2.36902 0.264092 -2.35146 2.36132 -0.110484 -2.36365 -8.73699 0.562028 13.688 -8.19798 -8.52437 13.6819 -0.0 0.0 -0.0 2.32805 3.5082 4.75161 8.92275 -20.5091 62.5082 1.32516 -33.281 0.396082 -6.73418 -0.285376 0.811702 0.478144 9.26904 6.93609 -0.0 0.0 -0.0 2.98602 22.491 -3.84874 -25.9529 24.4214 -71.7203 0.24882 7.0269 -0.0152772 32.2211 0.00761876 4.06227 1.08185 6.24266 -4.65668 0.0 0.0 0.0 -0.693745 28.8964 0.174035 5.80932 -0.282434 -0.846099 26.0053 -5.40421 -3.52241 -11.6921 0.0 0.0 -0.0 0.0 -0.0 33.4611 10.2503 -11.4522 -49.3405 1.16522 -7.25241 24.2995 -2.42158 3.25826 4.7791 -0.0 -0.0 0.0 0.0 0.0 
2758.95739213 690.562 -1551.83704469 -5.40365631517 79.9337772345 9.89710152504 2.36977 -0.363068 -2.42422 2.37302 -0.20812 -2.44239 2.38148 0.208618 -2.44235 2.3732 -0.179605 -2.44465 -8.68618 1.26037 13.7293 -8.14475 -7.26118 13.8766 -0.0 0.0 -0.0 2.31299 4.01069 4.76044 9.72332 -20.5494 61.8781 1.41923 -35.1069 0.448958 -6.0057 -0.249918 0.725559 0.193995 7.29864 4.30349 -0.0 0.0 -0.0 2.79335 20.915 -3.58981 -29.7837 24.6148 -72.0858 0.223791 6.3261 -0.0123671 32.096 0.0031706 4.04691 0.821538 5.54805 -3.18967 0.0 0.0 0.0 -3.02385 28.6472 0.222551 5.23247 -0.25056 -0.763389 26.6443 -4.75609 -3.58746 -11.2049 0.0 0.0 -0.0 0.0 -0.0 34.863 9.63519 -11.0127 -44.0246 0.742455 -6.55228 23.0107 -2.03806 3.10774 3.9715 -0.0 -0.0 0.0 0.0 0.0 
2741.93726135 685.7 -1547.11734447 -6.12046583814 80.7760012388 10.7344433355 2.62635 -0.450292 -2.66152 2.63025 -0.280082 -2.68476 2.64262 0.166423 -2.69419 2.63259 -0.261005 -2.68668 -8.98204 1.86611 13.7088 -8.44592 -6.04723 13.9584 -0.0 0.0 -0.0 2.58603 4.2452 5.28269 10.8987 -20.715 61.6451 1.50589 -36.7196 0.499795 -5.50518 -0.226193 0.666119 -0.0728778 5.88338 1.98009 -0.0 0.0 -0.0 2.86083 19.988 -3.8264 -31.6903 24.8255 -72.0627 0.205731 5.81923 -0.0104565 32.2609 0.00904061 4.06715 0.50386 3.97692 -1.7082 0.0 0.0 0.0 -4.76801 29.6923 0.682038 4.79978 -0.2272 -0.701143 27.1922 -3.52551 -3.63508 -10.8657 0.0 0.0 -0.0 0.0 -0.0 35.8639 9.2903 -10.7781 -39.8999 0.460411 -5.98427 22.1715 -1.74565 3.00847 3.40626 -0.0 -0.0 0.0 0.0 0.0 
2730.65067972 686.421 -1548.68138445 -7.38903458273 80.7204891993 12.0104264848 2.87258 -0.417387 -2.86112 2.87711 -0.234558 -2.88185 2.88769 0.231572 -2.8821 2.87617 -0.226313 -2.88251 -9.74104 2.31123 13.9656 -9.18969 -5.21342 14.2512 -0.0 0.0 -0.0 2.5347 4.44306 5.20121 11.6623 -20.7436 61.2524 1.57018 -37.8739 0.538754 -5.01523 -0.203475 0.607738 -0.295189 4.89548 0.10879 -0.0 0.0 -0.0 2.95635 19.479 -4.08133 -32.3335 25.0246 -71.652 0.197813 5.59673 -0.00966902 32.4535 0.0159738 4.09078 0.245542 2.60609 -0.54739 0.0 0.0 0.0 -5.37422 30.3924 0.853978 5.31257 -0.254936 -0.774892 27.6636 -2.67402 -3.67886 -10.6211 0.0 0.0 -0.0 0.0 -0.0 36.126 9.07331 -10.4016 -35.1316 0.186439 -5.30485 21.6209 -1.53864 2.94279 3.02788 -0.0 -0.0 0.0 0.0 0.0 
